# xmcd CD database file
#
# Track frame offsets:
#	150
#	10199
#	21620
#	31146
#	43170
#	50843
#	59019
#	67452
#	76980
#
# Disc length: 1192 seconds
#
# Revision: 0
# Processed by: cddbd v1.5.2PL0 Copyright (c) Steve Scherf et al.
# Submitted via: CDex 1.51
#
DISCID=8404a609
DTITLE=Rusty McHugh - Sleazin' To Please
DYEAR=2006
DGENRE=Country
TTITLE0=Throwin' Caution to the Wind
TTITLE1=Alabama Skyline
TTITLE2=Don't Tell Me
TTITLE3=Mango Mama
TTITLE4=Ugly to the Bone
TTITLE5=Sleaze Motel
TTITLE6=Trash on the Beach
TTITLE7=Florida Sunshine
TTITLE8=Sleazin' To Please
EXTD=YEAR: 2006
EXTT0=
EXTT1=
EXTT2=
EXTT3=
EXTT4=
EXTT5=
EXTT6=
EXTT7=
EXTT8=
PLAYORDER=
